<svg xmlns="http://www.w3.org/2000/svg" xmlns:xlink="http://www.w3.org/1999/xlink" viewBox="0 0 206.81 44.09"><defs><style>.cls-1{fill:#009e9e;}.cls-2{fill:url(#Degradado_sin_nombre_22);}.cls-3{fill:url(#Degradado_sin_nombre_33);}.cls-4{fill:url(#Degradado_sin_nombre_33-2);}</style><linearGradient id="Degradado_sin_nombre_22" x1="45.11" y1="12.83" x2="-1.73" y2="43.1" gradientUnits="userSpaceOnUse"><stop offset="0" stop-color="#00ffd0"/><stop offset="0.32" stop-color="#3cff91"/><stop offset="1" stop-color="#c8ff00"/></linearGradient><linearGradient id="Degradado_sin_nombre_33" x1="42.23" y1="8.37" x2="-4.61" y2="38.64" gradientUnits="userSpaceOnUse"><stop offset="0" stop-color="aqua"/><stop offset="0.26" stop-color="#32ffc0"/><stop offset="0.87" stop-color="#afff24"/><stop offset="1" stop-color="#cf0"/></linearGradient><linearGradient id="Degradado_sin_nombre_33-2" x1="47.72" y1="16.88" x2="0.88" y2="47.14" xlink:href="#Degradado_sin_nombre_33"/></defs><g id="Capa_2" data-name="Capa 2"><g id="Capa_1-2" data-name="Capa 1"><path class="cls-1" d="M15.66,4.8,1.3,29.68A9.61,9.61,0,0,0,9.62,44.09H38.34a9.61,9.61,0,0,0,8.32-14.41L32.3,4.8a9.61,9.61,0,0,0-16.64,0Z"/><path class="cls-2" d="M43.78,30.24,30.22,6.76A7.13,7.13,0,0,0,24,3.16h0a7.14,7.14,0,0,0-6.24,3.6L4.19,30.24a7.21,7.21,0,0,0,6.24,10.81H16.9a2.28,2.28,0,0,0,0-4.55H10.43a2.66,2.66,0,0,1-2.3-4L21.68,9a2.65,2.65,0,0,1,4.6,0L39.84,32.51a2.66,2.66,0,0,1-2.31,4H31a2.28,2.28,0,0,0,0,4.55h6.54a7.21,7.21,0,0,0,6.25-10.81Z"/><path class="cls-3" d="M26.28,20.15A2.3,2.3,0,1,0,24,22.48,2.3,2.3,0,0,0,26.28,20.15Z"/><path class="cls-4" d="M25.55,23.75h-3a1.85,1.85,0,0,0-2,2c0,2.14,0,4.27,0,6.41a1.72,1.72,0,0,0,.66,1.35,1.61,1.61,0,0,1,.53,1.4c0,1.35,0,3.68,0,5.07a1.05,1.05,0,1,0,2.1,0V33.85a.2.2,0,1,1,.4,0V40a1.06,1.06,0,0,0,2.12,0c0-1.35,0-3.55,0-4.86a2,2,0,0,1,.74-1.8,1.09,1.09,0,0,0,.42-.69c0-2.37,0-4.73,0-7.1A1.81,1.81,0,0,0,25.55,23.75Z"/><path class="cls-1" d="M57,32.52l7.62-20h4.58l7.59,20H72.4l-1.89-4.8H63.17l-1.86,4.8Zm6.84-8h6.1l-3.06-8Z"/><path class="cls-1" d="M79,39.22V17.84h3.63l.21,1.36A7.24,7.24,0,0,1,85,18a7.56,7.56,0,0,1,2.7-.44,6.72,6.72,0,0,1,5,1.75c1.16,1.17,1.75,3.07,1.75,5.72s-.63,4.61-1.88,5.9a6.75,6.75,0,0,1-5.09,1.93,7.67,7.67,0,0,1-4.22-1.11v7.5Zm7.34-9.45a3.45,3.45,0,0,0,2.82-1.15,5.52,5.52,0,0,0,1-3.59,5.33,5.33,0,0,0-.86-3.39,3.42,3.42,0,0,0-2.79-1,4.54,4.54,0,0,0-3.29,1.33v6.72a6.92,6.92,0,0,0,1.38.81A4.69,4.69,0,0,0,86.37,29.77Z"/><path class="cls-1" d="M96.69,39.22V17.84h3.62l.22,1.36A7.12,7.12,0,0,1,102.64,18a7.54,7.54,0,0,1,2.69-.44,6.69,6.69,0,0,1,5,1.75c1.17,1.17,1.75,3.07,1.75,5.72s-.62,4.61-1.87,5.9a6.76,6.76,0,0,1-5.09,1.93,7.67,7.67,0,0,1-4.22-1.11v7.5ZM104,29.77a3.45,3.45,0,0,0,2.82-1.15,5.52,5.52,0,0,0,1-3.59,5.26,5.26,0,0,0-.87-3.39,3.39,3.39,0,0,0-2.79-1,4.53,4.53,0,0,0-3.28,1.33v6.72a6.92,6.92,0,0,0,1.38.81A4.69,4.69,0,0,0,104,29.77Z"/><path class="cls-1" d="M114.35,32.52V17.84h3.87l.19,1.52a12.36,12.36,0,0,1,2.46-1.13,15,15,0,0,1,2.89-.7v3.16c-.55.08-1.16.21-1.82.37s-1.29.35-1.89.56a9.75,9.75,0,0,0-1.52.65V32.52Z"/><path class="cls-1" d="M132.31,32.83a9,9,0,0,1-6-1.9c-1.48-1.27-2.23-3.2-2.23-5.78a8,8,0,0,1,1.88-5.56,8.58,8.58,0,0,1,10.81-.28A6.24,6.24,0,0,1,138.54,24v2.67H127.91a3.16,3.16,0,0,0,1.63,2.41,8.13,8.13,0,0,0,3.64.66,14.1,14.1,0,0,0,2.4-.22,11.16,11.16,0,0,0,2.09-.56v3a9.41,9.41,0,0,1-2.38.7A17.26,17.26,0,0,1,132.31,32.83Zm-4.4-8.76h7v-.81a2.67,2.67,0,0,0-.74-2,3.53,3.53,0,0,0-2.51-.72,4,4,0,0,0-2.89.83A3.74,3.74,0,0,0,127.91,24.07Z"/><path class="cls-1" d="M144.3,32.52l-5.79-14.68h4.37l3.65,10.47,3.69-10.47h4.34l-5.77,14.68Z"/><path class="cls-1" d="M162.83,32.83a9,9,0,0,1-6-1.9q-2.23-1.91-2.23-5.78a8,8,0,0,1,1.87-5.56,8.58,8.58,0,0,1,10.81-.28A6.24,6.24,0,0,1,169.05,24v2.67H158.43a3.15,3.15,0,0,0,1.62,2.41,8.13,8.13,0,0,0,3.64.66,14.1,14.1,0,0,0,2.4-.22,11.28,11.28,0,0,0,2.1-.56v3a9.61,9.61,0,0,1-2.39.7A17.22,17.22,0,0,1,162.83,32.83Zm-4.4-8.76h7v-.81a2.68,2.68,0,0,0-.75-2,3.53,3.53,0,0,0-2.51-.72,4,4,0,0,0-2.89.83A3.74,3.74,0,0,0,158.43,24.07Z"/><path class="cls-1" d="M171.34,32.52V17.84h3.88l.15,1.39A9,9,0,0,1,177.65,18a8.27,8.27,0,0,1,2.9-.51,5.76,5.76,0,0,1,4.24,1.36,5.84,5.84,0,0,1,1.33,4.22v9.41h-4.18v-9.2a3,3,0,0,0-.6-2.1,3.12,3.12,0,0,0-2.25-.62,4.73,4.73,0,0,0-1.94.43,5.18,5.18,0,0,0-1.62,1.09v10.4Z"/><path class="cls-1" d="M190.27,32.52V20.94h-2.2l.37-3.1h6V32.52Zm-.34-17.37V11.86h4.56v3.29Z"/><path class="cls-1" d="M197.4,32.52V17.84h3.87l.18,1.52a12.74,12.74,0,0,1,2.47-1.13,15,15,0,0,1,2.89-.7v3.16c-.55.08-1.16.21-1.82.37s-1.29.35-1.89.56a9.75,9.75,0,0,0-1.52.65V32.52Z"/></g></g></svg>