<svg xmlns="http://www.w3.org/2000/svg" xmlns:xlink="http://www.w3.org/1999/xlink" viewBox="0 0 203.6 37.91"><defs><style>.cls-1{fill:url(#Degradado_sin_nombre_22);}.cls-2{fill:url(#Degradado_sin_nombre_33);}.cls-3{fill:url(#Degradado_sin_nombre_33-2);}.cls-4{fill:#009e9e;}</style><linearGradient id="Degradado_sin_nombre_22" x1="41.9" y1="9.67" x2="-4.94" y2="39.94" gradientUnits="userSpaceOnUse"><stop offset="0" stop-color="#00ffd0"/><stop offset="0.32" stop-color="#3cff91"/><stop offset="1" stop-color="#c8ff00"/></linearGradient><linearGradient id="Degradado_sin_nombre_33" x1="39.02" y1="5.21" x2="-7.82" y2="35.48" gradientUnits="userSpaceOnUse"><stop offset="0" stop-color="aqua"/><stop offset="0.26" stop-color="#32ffc0"/><stop offset="0.87" stop-color="#afff24"/><stop offset="1" stop-color="#cf0"/></linearGradient><linearGradient id="Degradado_sin_nombre_33-2" x1="44.51" y1="13.72" x2="-2.33" y2="43.98" xlink:href="#Degradado_sin_nombre_33"/></defs><g id="Capa_2" data-name="Capa 2"><g id="Capa_1-2" data-name="Capa 1"><path class="cls-1" d="M40.57,27.08,27,3.6A7.13,7.13,0,0,0,20.77,0h0a7.14,7.14,0,0,0-6.24,3.6L1,27.08a7.11,7.11,0,0,0,0,7.21,7.13,7.13,0,0,0,6.24,3.6h6.47a2.28,2.28,0,1,0,0-4.55H7.22a2.66,2.66,0,0,1-2.3-4L18.47,5.88a2.65,2.65,0,0,1,4.6,0L36.63,29.35a2.66,2.66,0,0,1-2.3,4H27.78a2.28,2.28,0,0,0,0,4.55h6.55a7.21,7.21,0,0,0,6.24-10.81Z"/><path class="cls-2" d="M23.07,17a2.3,2.3,0,1,0-2.28,2.33A2.3,2.3,0,0,0,23.07,17Z"/><path class="cls-3" d="M22.34,20.59h-3a1.85,1.85,0,0,0-2,2c0,2.14,0,4.27,0,6.41A1.72,1.72,0,0,0,18,30.39a1.61,1.61,0,0,1,.53,1.4c0,1.35,0,3.68,0,5.07a1.05,1.05,0,1,0,2.1,0V30.69a.2.2,0,1,1,.4,0v6.16a1.06,1.06,0,0,0,2.12,0c0-1.35,0-3.55,0-4.86a2,2,0,0,1,.74-1.8,1.06,1.06,0,0,0,.42-.69c0-2.36,0-4.73,0-7.1A1.81,1.81,0,0,0,22.34,20.59Z"/><path class="cls-4" d="M53.74,29.37l7.62-20h4.58l7.59,20H69.2l-1.9-4.81H60L58.1,29.37Zm6.84-8h6.11l-3.07-8Z"/><path class="cls-4" d="M75.82,36.06V14.68h3.63L79.67,16a7.42,7.42,0,0,1,2.1-1.23,7.6,7.6,0,0,1,2.7-.44,6.77,6.77,0,0,1,5,1.75c1.16,1.17,1.75,3.07,1.75,5.72s-.63,4.61-1.88,5.9a6.73,6.73,0,0,1-5.09,1.93A7.63,7.63,0,0,1,80,28.56v7.5Zm7.35-9.45A3.43,3.43,0,0,0,86,25.46a5.52,5.52,0,0,0,1-3.59,5.27,5.27,0,0,0-.86-3.39,3.42,3.42,0,0,0-2.79-1A4.5,4.5,0,0,0,80,18.77v6.72a6.58,6.58,0,0,0,1.37.81A4.52,4.52,0,0,0,83.17,26.61Z"/><path class="cls-4" d="M93.48,36.06V14.68h3.63L97.32,16a7.34,7.34,0,0,1,2.11-1.23,7.54,7.54,0,0,1,2.69-.44,6.77,6.77,0,0,1,5,1.75c1.16,1.17,1.75,3.07,1.75,5.72s-.63,4.61-1.88,5.9a6.76,6.76,0,0,1-5.09,1.93,7.67,7.67,0,0,1-4.22-1.11v7.5Zm7.34-9.45a3.45,3.45,0,0,0,2.82-1.15,5.52,5.52,0,0,0,1-3.59,5.33,5.33,0,0,0-.86-3.39,3.42,3.42,0,0,0-2.79-1,4.54,4.54,0,0,0-3.29,1.33v6.72A6.92,6.92,0,0,0,99,26.3,4.5,4.5,0,0,0,100.82,26.61Z"/><path class="cls-4" d="M111.14,29.37V14.68H115l.19,1.52a12.36,12.36,0,0,1,2.46-1.13,15.08,15.08,0,0,1,2.9-.7v3.16c-.56.08-1.17.21-1.83.37s-1.29.35-1.89.56a9.75,9.75,0,0,0-1.52.65V29.37Z"/><path class="cls-4" d="M129.1,29.67a9,9,0,0,1-6-1.9c-1.48-1.27-2.23-3.2-2.23-5.78a8,8,0,0,1,1.88-5.56,8.58,8.58,0,0,1,10.81-.28,6.25,6.25,0,0,1,1.81,4.67v2.66H124.71a3.16,3.16,0,0,0,1.62,2.42,8.29,8.29,0,0,0,3.64.65,14.1,14.1,0,0,0,2.4-.22,10.26,10.26,0,0,0,2.09-.56v3a9.42,9.42,0,0,1-2.38.69A17.26,17.26,0,0,1,129.1,29.67Zm-4.39-8.76h7V20.1a2.68,2.68,0,0,0-.75-2,3.53,3.53,0,0,0-2.51-.72,4,4,0,0,0-2.89.83A3.74,3.74,0,0,0,124.71,20.91Z"/><path class="cls-4" d="M141.09,29.37,135.3,14.68h4.37l3.65,10.47L147,14.68h4.34l-5.76,14.69Z"/><path class="cls-4" d="M159.62,29.67a9,9,0,0,1-6-1.9q-2.24-1.9-2.23-5.78a8,8,0,0,1,1.87-5.56A8.58,8.58,0,0,1,164,16.15a6.25,6.25,0,0,1,1.81,4.67v2.66H155.22a3.21,3.21,0,0,0,1.62,2.42,8.32,8.32,0,0,0,3.64.65,14.3,14.3,0,0,0,2.41-.22,10.63,10.63,0,0,0,2.09-.56v3a9.62,9.62,0,0,1-2.39.69A17.22,17.22,0,0,1,159.62,29.67Zm-4.4-8.76h7V20.1a2.71,2.71,0,0,0-.74-2,3.57,3.57,0,0,0-2.51-.72,4,4,0,0,0-2.9.83A3.74,3.74,0,0,0,155.22,20.91Z"/><path class="cls-4" d="M168.14,29.37V14.68H172l.15,1.4a8.68,8.68,0,0,1,2.28-1.2,8.27,8.27,0,0,1,2.9-.51,5.71,5.71,0,0,1,4.24,1.37A5.8,5.8,0,0,1,182.91,20v9.42h-4.18V20.16a3,3,0,0,0-.6-2.1,3.17,3.17,0,0,0-2.25-.62,4.69,4.69,0,0,0-1.93.43A5.11,5.11,0,0,0,172.32,19V29.37Z"/><path class="cls-4" d="M187.06,29.37V17.78h-2.2l.38-3.1h6V29.37ZM186.72,12V8.7h4.56V12Z"/><path class="cls-4" d="M194.19,29.37V14.68h3.87l.19,1.52a12.36,12.36,0,0,1,2.46-1.13,15.17,15.17,0,0,1,2.89-.7v3.16c-.55.08-1.16.21-1.82.37s-1.29.35-1.89.56a9.75,9.75,0,0,0-1.52.65V29.37Z"/></g></g></svg>