<svg id="_1" data-name="1" xmlns="http://www.w3.org/2000/svg" viewBox="0 0 580 763.52"><defs><style>.cls-1{fill:#263238;}.cls-2{fill:#b78876;}.cls-3{fill:#995037;}.cls-4{fill:#2b4751;}.cls-5{fill:#707070;}.cls-6{fill:#455a64;}.cls-7{fill:#fff;}</style></defs><path class="cls-1" d="M381.6,143.28c14.54-20.65-4.63-49.11-17.36-58.73-2.58-5.87-5-14.5-10.19-15.86a24.2,24.2,0,0,0-24,2.38c-3.27-11.73-18.49-15-27.79-8.26a2,2,0,0,1-2.86-.05c-6.16-9.7-23.48-7.35-22.6,5.58-8.51-7.11-22.09,1.08-19.89,11.89C240,75,237.2,96.42,247.09,105.75c3.41,3,6.34,1.11,10.81,2,6.65,1.48,13.68,2.89,20.21.81"/><path class="cls-2" d="M235.55,147.76c3.07-40.4,38.11-70.91,78.47-69.09,41.87,2.37,63.25,39.23,59.74,81l-7.46,193H270.35l.85-62.81C213.72,282.53,232.63,207.21,235.55,147.76Z"/><path class="cls-3" d="M270.81,289.83a97.58,97.58,0,0,0,52.69-15.54s-12.35,29-52.54,25.44Z"/><path class="cls-1" d="M251.11,179.55c-.23,7.11,11.16,7.83,11.48.59S251.45,172.33,251.11,179.55Z"/><path class="cls-1" d="M244.24,167.43c.73.74,5.07-2.49,11.26-2.47s10.71,3.07,11.37,2.33C264.3,159.52,246.57,159.39,244.24,167.43Z"/><path class="cls-1" d="M310.66,182.3c-.25,7.12,11.14,7.85,11.48.61C322.34,175.83,311,175.07,310.66,182.3Z"/><path class="cls-1" d="M305.09,170.52c.72.75,5.07-2.49,11.25-2.49s10.71,3.1,11.38,2.35C325.17,162.59,307.43,162.51,305.09,170.52Z"/><path class="cls-1" d="M282.68,214.35c-18.84-3.94-14.85.65-7.76-20,15.12-40,12.52-41-2.51-.9C266.16,210.69,261.07,216.19,282.68,214.35Z"/><path class="cls-1" d="M301.64,219.5c-1-.09-1.64,6.53-7.8,10.75s-13.2,2.8-13.35,3.74c2.63,3.2,12.06,1.94,15.58-1C299.91,231,304.21,222.7,301.64,219.5Z"/><path class="cls-1" d="M301.91,156.51c.59,1.68,6.77,1,14,1.9s13.07,3,14.15,1.5C328.36,151.46,305.61,148.84,301.91,156.51Z"/><path class="cls-1" d="M242.74,149.56c1.18,1.54,6.51.61,12.76,1.17s11.43,2,12.79.77c.69-4.2-8.64-6.89-12.37-7C252.25,144,242.6,145.32,242.74,149.56Z"/><path class="cls-2" d="M367.73,189.47c39.66-11.64,32.64,52-1.43,39.49C366.3,228.17,367.73,189.47,367.73,189.47Z"/><path class="cls-3" d="M372.54,218.8c5.66,3.91,10.22-2.74,10.65-9.54.64-3.87-2.59-14.36-7.49-9.46-.92,4.07-2-3.3,3.09-2.57,9.78,2.94,7.31,21.72-1,23.79C376.15,221.67,372.47,220.5,372.54,218.8Z"/><path class="cls-1" d="M349.71,107.71,336.11,96l-43.25,6.63-30.31-7.82-18.19,2.77c1.49,2,1.79,2,2.25.81,10.15-18.8,40.52-25.43,57.22-26.3,23,.9,79.13,31.07,81.1,54.61,1.74,14.87-6.59,31.76-9.9,46.37-1.7,7.54-5,30.32-5,30.32h0c-6.31,0-8.67-5.05-7.7-11.3l1.17-24.51C332.32,140.8,365.19,118.22,349.71,107.71Z"/><path class="cls-1" d="M355.31,114.26c-2.43-7.84-11-12.73-19.2-12.63-16.91-.69-24.21,18.25-32.88,14.51-1-.74-2.22-.9-2.81.32-2.79,4.78-9.55,9.63-14.45,4.81-6.4,6.29-18,1.14-17.64-7.78C248,114.8,245.46,76,276.51,74.55c10.29-1,21.1-3,31.29-.53,4.18,1.52,7.65,4.93,12.12,5.48,7,.25,13.37-3.93,20.49-3.11,13.2,2,24.5,14.73,28.48,27.2,3.68,15.33-15.65,22.29-14.07,10.41"/><path class="cls-4" d="M367.71,314.55,479.47,370.1l-46.1,263.34,5.25,59.76-259.84.54,12-200.56-39.53-117.6,119.61-62.45C304.84,353.39,337.42,345.24,367.71,314.55Z"/><path class="cls-5" d="M252.71,539.89c1.22-34.24,1.51-59.45,2.66-104.11l-.84.18a329.28,329.28,0,0,0,29.36,50.82,572.54,572.54,0,0,1,26.35-58.56h-.91a205.18,205.18,0,0,1,22.68,61c.7-.72,35.4-35,36.13-35.71l-.73-.36c-2.6,29.22-9.59,61.73-18,89A399.4,399.4,0,0,0,368.32,452l-.85.83-35.53,35,.83.25a205.36,205.36,0,0,0-23-61.22,575.44,575.44,0,0,0-26.48,58.67l.89-.12a333,333,0,0,1-29.66-51.59C253.81,478.38,253.06,505.54,252.71,539.89Z"/><path class="cls-5" d="M376.4,433.09c-5-2.09-9.28,5.85-4.52,8.89,2.62,2.38,7.66,1.24,8.06-2.57.53-2.36-3.58-4.19-1.48-2.42,2.93,3.65-3.15,7-5.94,4.16C368.6,438.28,372.06,432.56,376.4,433.09Z"/><path class="cls-1" d="M309.51,410.58c-7.38-1.2-7.67,10.68-.11,10.24,4.25.18,6.55-6.2,3.31-8.67,3.25,5.32-3.75,10.94-7.49,5.41C303.25,414.48,306.26,410.82,309.51,410.58Z"/><path class="cls-5" d="M250.1,416.72c4.6.15,6.46,7.3,1.25,8.12-5.16,1.09-6-6.26-1.71-8-7.24,1.52-2.67,12.48,3.75,8.3C257.72,422.73,254.58,415.48,250.1,416.72Z"/><path class="cls-5" d="M239.67,545.53c39.53-.8,91.68,2.1,131,6.16C332.63,546,278.08,543,239.67,545.53Z"/><path class="cls-4" d="M190.48,522.82,108.8,516.5c6.49-30.95,40.54-264.37,96.8-66Z"/><path class="cls-4" d="M527.79,549.93c-15-180.47-71.41-280.4-101-12.57Z"/><path class="cls-1" d="M184,606.72c3.79-52.15,7.74-126.09,6.95-178.36C190.47,480.64,186.47,554.52,184,606.72Z"/><path class="cls-1" d="M440.81,598.52c-.65-49.77,2.77-120.18.89-169.9C442.35,478.39,438.92,548.78,440.81,598.52Z"/><path class="cls-1" d="M441.66,417.16c3.67-18,15.9-39.65,35.44-45.36C456.68,376.33,444.06,397.51,441.66,417.16Z"/><rect class="cls-6" x="274.2" y="386.32" width="72.91" height="145.68" rx="13.4"/><path class="cls-7" d="M311.19,403c-5.38-.08-5.38,8.37,0,8.29C316.56,411.38,316.56,402.93,311.19,403Z"/><path class="cls-2" d="M394,471.1l-21-25.57s-42.2-8.91-47.23-7.37c-4.29,1.45-3.7,7.85-3.35,10.83l5.64,2.94,24.41,1.73,15.13,8-10.1-3.43-28.6-1.21c-4.1-.31-10.1,2.75-9.49,7.36,2.53,6.73,27.89,7.73,34,9.71L362.3,487l-26.84-5.14s-15.36,7.07-16.17,9.25c.39,4.31,29.82,10.35,33.95,12.72l-18.95,2.91-20.06,6.11,8.87,3.07,16.29.22,14.53,5.18.75,12.57s7.46,12.16,13.49,14.76,25.55-31.33,25.55-31.33l-.07-15.24,2.26-14.48C392.71,478.49,392.54,480.78,394,471.1Z"/><path class="cls-2" d="M368.32,546.41l56.37,145.21s12.2,28.06,44.56,24.45c51.54-10.65,40.4-130.17,49.87-167.93l-77.86-8.78-.53,46.29-47-70.22Z"/><path class="cls-3" d="M472.77,666.67a115.63,115.63,0,0,0-30.5-78.95C463.18,607.62,474.81,637.91,472.77,666.67Z"/><path class="cls-2" d="M232.12,457.47l21-25.57s42.19-8.91,47.23-7.37c4.29,1.44,3.7,7.85,3.34,10.82l-5.63,2.95L273.67,440l-15.13,8.05,10.1-3.43,28.61-1.22c4.1-.3,10.1,2.76,9.49,7.37-2.54,6.73-27.9,7.73-34,9.7l-8.92,12.84,26.85-5.14s15.35,7.07,16.17,9.25c-.39,4.3-29.83,10.35-34,12.72l18.95,2.91,20.06,6.1-8.86,3.08-16.29.21-14.53,5.19-.76,12.57S264,532.39,258,535s-25.56-31.33-25.56-31.33l.08-15.24-2.27-14.49C233.45,464.86,233.62,467.15,232.12,457.47Z"/><path class="cls-2" d="M257.84,532.47,205.06,669.71s-12.2,28.06-44.55,24.44C109,683.51,120.35,555,110.88,517.21l77.13,5.3,1,41.22,43.91-61Z"/><path class="cls-3" d="M157,644.75a115.56,115.56,0,0,1,30.5-78.94C166.57,585.7,154.94,616,157,644.75Z"/><path class="cls-3" d="M237,467.67c-7.32,5.48-3.49,13.54,1,17.35,1,1.31,3.25,2.3,2.86,4.31-5.66,9.94.65,9.75,4.06,16.14-.6,5.7-.89,11.81,4.48,15,1.73,1,3.83,1.89.32-.29-7.59-4.9-1.62-12.18-5.21-17.54-8.46-6-3.52-7.23-2.82-15C236.91,482.53,228.88,475.82,237,467.67Z"/><path class="cls-3" d="M386.22,467.67c7.32,5.48,3.48,13.54-1,17.35-1,1.31-3.25,2.3-2.86,4.31,5.65,9.94-.65,9.75-4.06,16.14.6,5.7.89,11.81-4.48,15-1.74,1-3.84,1.89-.33-.29,7.6-4.9,1.63-12.18,5.22-17.54,8.46-6,3.52-7.23,2.82-15C386.27,482.53,394.3,475.82,386.22,467.67Z"/><path class="cls-3" d="M247.24,457.06c-2.71-10.35,32.4-11.8,38.66-13.36C279.23,443.27,242.3,446.45,247.24,457.06Z"/><path class="cls-3" d="M371.22,468.08c2-10.5-33.11-9.61-39.47-10.75C338.38,456.45,375.44,457.17,371.22,468.08Z"/><path class="cls-3" d="M371.22,495.54c2-10.5-33.11-9.61-39.47-10.75C338.38,483.91,375.44,484.63,371.22,495.54Z"/></svg>