<svg xmlns="http://www.w3.org/2000/svg" xmlns:xlink="http://www.w3.org/1999/xlink" viewBox="0 0 171.09 157.26"><defs><style>.cls-1{fill:#00838f;}.cls-2{fill:url(#Degradado_sin_nombre_33);}.cls-3{fill:url(#Degradado_sin_nombre_33-2);}.cls-4{fill:url(#Degradado_sin_nombre_33-3);}</style><linearGradient id="Degradado_sin_nombre_33" x1="160.91" y1="45.77" x2="-6.18" y2="153.74" gradientUnits="userSpaceOnUse"><stop offset="0" stop-color="aqua"/><stop offset="0.26" stop-color="#32ffc0"/><stop offset="0.87" stop-color="#afff24"/><stop offset="1" stop-color="#cf0"/></linearGradient><linearGradient id="Degradado_sin_nombre_33-2" x1="150.63" y1="29.87" x2="-16.45" y2="137.83" xlink:href="#Degradado_sin_nombre_33"/><linearGradient id="Degradado_sin_nombre_33-3" x1="170.23" y1="60.2" x2="3.15" y2="168.16" xlink:href="#Degradado_sin_nombre_33"/></defs><g id="Capa_2" data-name="Capa 2"><g id="Capa_1-2" data-name="Capa 1"><path class="cls-1" d="M55.87,17.14,4.64,105.86a34.26,34.26,0,0,0,29.68,51.4H136.77a34.27,34.27,0,0,0,29.68-51.4L115.22,17.14a34.26,34.26,0,0,0-59.35,0Z"/><path class="cls-2" d="M156.16,107.86,107.81,24.13A25.45,25.45,0,0,0,85.55,11.27h0A25.45,25.45,0,0,0,63.28,24.13L14.93,107.86A25.72,25.72,0,0,0,37.2,146.43H60.28a8.12,8.12,0,1,0,0-16.23H37.2A9.48,9.48,0,0,1,29,116L77.33,32.24a9.49,9.49,0,0,1,16.43,0L142.1,116a9.48,9.48,0,0,1-8.21,14.22H110.55a8.12,8.12,0,0,0,0,16.23h23.34a25.72,25.72,0,0,0,22.27-38.57Z"/><path class="cls-3" d="M93.73,71.87a8.19,8.19,0,1,0-8.14,8.31A8.17,8.17,0,0,0,93.73,71.87Z"/><path class="cls-4" d="M91.13,84.73q-5.41,0-10.83,0c-4.51,0-7.12,2.71-7.12,7.27,0,7.61.07,15.23-.06,22.84a6.16,6.16,0,0,0,2.36,4.82c1.53,1.27,1.93,3,1.89,5-.09,4.84-.06,13.15,0,18.11a3.75,3.75,0,0,0,7.49,0v-22a.72.72,0,0,1,1.43,0v22a3.78,3.78,0,0,0,7.56,0c0-4.82,0-12.68-.1-17.35-.08-2.66.49-4.74,2.63-6.42a3.86,3.86,0,0,0,1.51-2.46q.16-12.65,0-25.32A6.46,6.46,0,0,0,91.13,84.73Z"/></g></g></svg>