<svg xmlns="http://www.w3.org/2000/svg" viewBox="0 0 148.2 135.22"><defs><style>.cls-1{fill:#fff;}</style></defs><g id="Capa_2" data-name="Capa 2"><g id="Capa_1-2" data-name="Capa 1"><path class="cls-1" d="M144.71,96.59,96.37,12.86A25.47,25.47,0,0,0,74.1,0h0A25.46,25.46,0,0,0,51.83,12.86L3.49,96.59a25.71,25.71,0,0,0,22.26,38.57H48.84a8.12,8.12,0,0,0,0-16.23H25.75a9.48,9.48,0,0,1-8.21-14.22L65.89,21a9.48,9.48,0,0,1,16.42,0l48.35,83.74a9.48,9.48,0,0,1-8.22,14.22H99.11a8.12,8.12,0,1,0,0,16.23h23.33a25.71,25.71,0,0,0,22.27-38.57Z"/><path class="cls-1" d="M82.29,60.61a8.19,8.19,0,1,0-8.14,8.3A8.17,8.17,0,0,0,82.29,60.61Z"/><path class="cls-1" d="M79.68,73.46c-3.61,0-7.21,0-10.82,0-4.51,0-7.12,2.71-7.13,7.27,0,7.62.07,15.23-.06,22.84A6.14,6.14,0,0,0,64,108.4c1.54,1.27,1.94,2.95,1.9,5-.09,4.84-.07,13.15-.05,18.11a3.75,3.75,0,0,0,7.49,0v-22a.72.72,0,0,1,1.43,0v22a3.79,3.79,0,0,0,7.57,0c0-4.82,0-12.68-.11-17.35-.07-2.66.5-4.74,2.63-6.42a3.87,3.87,0,0,0,1.52-2.46q.16-12.65,0-25.31A6.46,6.46,0,0,0,79.68,73.46Z"/></g></g></svg>