<svg xmlns="http://www.w3.org/2000/svg" viewBox="0 0 527.01 90.54"><defs><style>.cls-1{fill:#1c1c1b;}</style></defs><g id="Capa_2" data-name="Capa 2"><g id="Capa_1-2" data-name="Capa 1"><path class="cls-1" d="M146.21,14.42a7.94,7.94,0,0,0-2.37-3.09,6.24,6.24,0,0,0-4-1.33H139a6.28,6.28,0,0,0-4,1.33,8.12,8.12,0,0,0-2.38,3.12L111.67,63.86a6.14,6.14,0,0,0-.55,2.33,5.43,5.43,0,0,0,1.53,3.86,5.31,5.31,0,0,0,3.95,1.62,5.57,5.57,0,0,0,3.07-.91,5.67,5.67,0,0,0,2.1-2.49l4.88-11.7h25.53l4.9,11.76a5.67,5.67,0,0,0,2.08,2.43,5.53,5.53,0,0,0,3.07.91,5.33,5.33,0,0,0,4-1.62,5.43,5.43,0,0,0,1.52-3.86,6,6,0,0,0-.55-2.33Zm1.61,31.77H131l8.41-20.25Z"/><path class="cls-1" d="M206.4,27.83A21.05,21.05,0,0,0,195.88,25a20.12,20.12,0,0,0-12.5,4.24A5.33,5.33,0,0,0,182,27a5.52,5.52,0,0,0-3.9-1.56,5.43,5.43,0,0,0-5.48,5.47V85a5.53,5.53,0,0,0,1.57,3.9,5.3,5.3,0,0,0,3.91,1.65A5.43,5.43,0,0,0,183.63,85V68a20,20,0,0,0,12.25,4.07,21.06,21.06,0,0,0,10.52-2.82A21.45,21.45,0,0,0,214.46,61a24.91,24.91,0,0,0,3.06-12.49,25,25,0,0,0-3.06-12.5A21.45,21.45,0,0,0,206.4,27.83ZM183.63,40.64a18.11,18.11,0,0,1,4.89-3.59,13.77,13.77,0,0,1,6.29-1.49,11.1,11.1,0,0,1,8.48,3.3c2.12,2.22,3.2,5.48,3.2,9.69s-1.08,7.46-3.2,9.68h0a11.07,11.07,0,0,1-8.48,3.31,13.77,13.77,0,0,1-6.29-1.49,18.54,18.54,0,0,1-4.89-3.59Z"/><path class="cls-1" d="M256.55,27.83A21.11,21.11,0,0,0,246,25a20.11,20.11,0,0,0-12.49,4.24A5.33,5.33,0,0,0,232.12,27a5.56,5.56,0,0,0-3.91-1.56,5.43,5.43,0,0,0-5.47,5.47V85a5.52,5.52,0,0,0,1.56,3.9,5.33,5.33,0,0,0,3.91,1.65A5.43,5.43,0,0,0,233.77,85V68A20.09,20.09,0,0,0,246,72.08a21.13,21.13,0,0,0,10.53-2.82A21.5,21.5,0,0,0,264.6,61a24.92,24.92,0,0,0,3.07-12.49,25,25,0,0,0-3.07-12.5A21.5,21.5,0,0,0,256.55,27.83ZM233.77,40.64a18.42,18.42,0,0,1,4.89-3.59,13.81,13.81,0,0,1,6.3-1.49,11.12,11.12,0,0,1,8.48,3.3c2.12,2.22,3.2,5.48,3.2,9.69s-1.08,7.46-3.2,9.68h0A11.09,11.09,0,0,1,245,61.54a13.78,13.78,0,0,1-6.3-1.49,18.87,18.87,0,0,1-4.89-3.59Z"/><path class="cls-1" d="M300.82,30.49a5.44,5.44,0,0,0-1.52-3.86A5.24,5.24,0,0,0,295.43,25H295a16,16,0,0,0-11.21,4.88,5.39,5.39,0,0,0-1.52-2.84,5.45,5.45,0,0,0-3.93-1.63,5.3,5.3,0,0,0-3.91,1.65,5.52,5.52,0,0,0-1.56,3.9V66.19a5.41,5.41,0,0,0,5.47,5.48,5.49,5.49,0,0,0,3.9-1.57,5.31,5.31,0,0,0,1.66-3.91V41.79a14.8,14.8,0,0,1,4.62-4.31,12.35,12.35,0,0,1,6.32-1.68h.41a5.56,5.56,0,0,0,3.91-1.46A5.07,5.07,0,0,0,300.82,30.49Z"/><path class="cls-1" d="M340.09,51.34a5.44,5.44,0,0,0,1.52-3.86,25,25,0,0,0-2.48-11.08,20.16,20.16,0,0,0-7.37-8.27A20.87,20.87,0,0,0,320.3,25a20.6,20.6,0,0,0-11.92,3.35,20,20,0,0,0-7.2,8.72,28.66,28.66,0,0,0-2.28,11.46c0,7.34,2.07,13.16,6.14,17.29h0c4.07,4.14,9.76,6.24,16.9,6.24a27.51,27.51,0,0,0,15.25-3.85c2.5-1.45,3-3.29,3-4.58A4.73,4.73,0,0,0,338.65,60a5.21,5.21,0,0,0-5.77-.86,23.81,23.81,0,0,1-4.69,1.76,23,23,0,0,1-5.59.6c-3.86,0-6.86-.93-8.92-2.75A10.92,10.92,0,0,1,310.34,53h25.72A5.42,5.42,0,0,0,340.09,51.34Zm-29.85-8a10.38,10.38,0,0,1,1.53-4A9.21,9.21,0,0,1,315.56,36,10.81,10.81,0,0,1,325,36a9.48,9.48,0,0,1,3.84,3.37,10.36,10.36,0,0,1,1.56,4Z"/><path class="cls-1" d="M378.82,25.43a5.4,5.4,0,0,0-3,.9,5.33,5.33,0,0,0-2,2.28.59.59,0,0,0,0,.08l-10.9,27.64L352,28.69l0-.09a5.63,5.63,0,0,0-5-3.17,5.3,5.3,0,0,0-3.91,1.65A5.52,5.52,0,0,0,341.5,31a6.22,6.22,0,0,0,.55,2.41l14.29,34.17a6.82,6.82,0,0,0,2.41,2.92,6.39,6.39,0,0,0,3.73,1.19h.82A6.34,6.34,0,0,0,367,70.48a6.94,6.94,0,0,0,2.43-2.94l14.28-34.15a6.22,6.22,0,0,0,.55-2.41,5.49,5.49,0,0,0-1.57-3.9A5.3,5.3,0,0,0,378.82,25.43Z"/><path class="cls-1" d="M425.77,51.34a5.45,5.45,0,0,0,1.53-3.86,25.17,25.17,0,0,0-2.48-11.08,20.16,20.16,0,0,0-7.37-8.27A20.91,20.91,0,0,0,406,25a20.62,20.62,0,0,0-11.92,3.35,20.06,20.06,0,0,0-7.19,8.72,28.49,28.49,0,0,0-2.28,11.46c0,7.34,2.06,13.16,6.13,17.29h0c4.08,4.14,9.76,6.24,16.9,6.24a27.58,27.58,0,0,0,15.26-3.85c2.5-1.45,3-3.29,3-4.58A4.76,4.76,0,0,0,424.34,60a5.23,5.23,0,0,0-5.78-.86,23.81,23.81,0,0,1-4.69,1.76,23,23,0,0,1-5.59.6c-3.85,0-6.85-.93-8.91-2.75A10.86,10.86,0,0,1,396,53h25.71A5.41,5.41,0,0,0,425.77,51.34Zm-29.85-8a10.71,10.71,0,0,1,1.53-4A9.21,9.21,0,0,1,401.24,36a10.81,10.81,0,0,1,9.48,0,9.42,9.42,0,0,1,3.84,3.37,10.36,10.36,0,0,1,1.56,4Z"/><path class="cls-1" d="M465.26,27.43a16,16,0,0,0-8.8-2.41A18.9,18.9,0,0,0,447,27.3a27.91,27.91,0,0,0-4.12,2.89,5.58,5.58,0,0,0-5.51-4.76,5.28,5.28,0,0,0-3.9,1.65,5.49,5.49,0,0,0-1.57,3.9V66.19a5.43,5.43,0,0,0,5.47,5.48,5.53,5.53,0,0,0,3.91-1.57A5.3,5.3,0,0,0,443,66.19v-24a24.52,24.52,0,0,1,5.31-4.89,11.22,11.22,0,0,1,6.37-1.84c5,0,7.25,2.54,7.25,8.23V66.19a5.41,5.41,0,0,0,5.47,5.48,5.49,5.49,0,0,0,3.9-1.57,5.27,5.27,0,0,0,1.66-3.91V42.88A20.55,20.55,0,0,0,471,34,15.82,15.82,0,0,0,465.26,27.43Z"/><path class="cls-1" d="M486.08,8.6h-.49a6,6,0,0,0-6,6v.33a5.84,5.84,0,0,0,1.76,4.21h0a5.81,5.81,0,0,0,4.21,1.75h.49a6,6,0,0,0,6-6v-.33a6,6,0,0,0-6-6Z"/><path class="cls-1" d="M485.75,25.43a5.28,5.28,0,0,0-3.9,1.65,5.49,5.49,0,0,0-1.57,3.9V66.19a5.43,5.43,0,0,0,5.47,5.48,5.53,5.53,0,0,0,3.91-1.57,5.3,5.3,0,0,0,1.65-3.91V31a5.42,5.42,0,0,0-5.56-5.55Z"/><path class="cls-1" d="M525.49,26.63A5.24,5.24,0,0,0,521.62,25h-.41A16,16,0,0,0,510,29.9a5.39,5.39,0,0,0-1.52-2.84,5.45,5.45,0,0,0-3.93-1.63,5.3,5.3,0,0,0-3.91,1.65,5.53,5.53,0,0,0-1.57,3.9V66.19a5.43,5.43,0,0,0,5.48,5.48,5.49,5.49,0,0,0,3.9-1.57,5.3,5.3,0,0,0,1.65-3.91V41.79a15,15,0,0,1,4.62-4.31A12.18,12.18,0,0,1,521,35.8h.42a5.58,5.58,0,0,0,3.91-1.46A5.1,5.1,0,0,0,527,30.49,5.49,5.49,0,0,0,525.49,26.63Z"/><path class="cls-1" d="M90.05,60.11,60,8A15.86,15.86,0,0,0,46.11,0h0A15.86,15.86,0,0,0,32.25,8L2.17,60.11A16,16,0,0,0,16,84.11H30.39a5,5,0,0,0,0-10.1H16a5.9,5.9,0,0,1-5.12-8.85L41,13.05a5.9,5.9,0,0,1,10.22,0L81.3,65.16A5.9,5.9,0,0,1,76.19,74H61.67a5,5,0,0,0,0,10.1H76.19a16,16,0,0,0,13.86-24Z"/><path class="cls-1" d="M51.21,37.71a5.1,5.1,0,1,0-5.07,5.17A5.09,5.09,0,0,0,51.21,37.71Z"/><path class="cls-1" d="M49.58,45.71c-2.24,0-4.49,0-6.73,0-2.81,0-4.43,1.68-4.44,4.52,0,4.74.05,9.48,0,14.22a3.82,3.82,0,0,0,1.47,3A3.59,3.59,0,0,1,41,70.56c-.06,3-.05,8.18,0,11.27a2.33,2.33,0,0,0,4.66,0V68.12a.45.45,0,1,1,.89,0V81.79a2.36,2.36,0,0,0,4.71,0c0-3,0-7.89-.07-10.79a4.41,4.41,0,0,1,1.64-4,2.38,2.38,0,0,0,.94-1.53q.1-7.88,0-15.75A4,4,0,0,0,49.58,45.71Z"/></g></g></svg>