<svg xmlns="http://www.w3.org/2000/svg" xmlns:xlink="http://www.w3.org/1999/xlink" viewBox="0 0 524.41 90.1"><defs><style>.cls-1{fill:#fff;}.cls-2{fill:url(#Degradado_sin_nombre_33);}.cls-3{fill:url(#Degradado_sin_nombre_33-2);}.cls-4{fill:url(#Degradado_sin_nombre_33-3);}</style><linearGradient id="Degradado_sin_nombre_33" x1="92.55" y1="21.36" x2="-10.91" y2="88.22" gradientUnits="userSpaceOnUse"><stop offset="0" stop-color="aqua"/><stop offset="0.26" stop-color="#32ffc0"/><stop offset="0.87" stop-color="#afff24"/><stop offset="1" stop-color="#cf0"/></linearGradient><linearGradient id="Degradado_sin_nombre_33-2" x1="86.18" y1="11.52" x2="-17.28" y2="78.37" xlink:href="#Degradado_sin_nombre_33"/><linearGradient id="Degradado_sin_nombre_33-3" x1="98.32" y1="30.3" x2="-5.14" y2="97.15" xlink:href="#Degradado_sin_nombre_33"/></defs><g id="Capa_2" data-name="Capa 2"><g id="Capa_1-2" data-name="Capa 1"><path class="cls-1" d="M145.49,14.35a8,8,0,0,0-2.36-3.08,6.25,6.25,0,0,0-4-1.32h-.81a6.23,6.23,0,0,0-4,1.32A8,8,0,0,0,132,14.38L111.12,63.55a6,6,0,0,0-.55,2.32,5.44,5.44,0,0,0,1.52,3.84,5.31,5.31,0,0,0,3.93,1.6,5.45,5.45,0,0,0,3-.9,5.67,5.67,0,0,0,2.1-2.47L126,56.29h25.41L156.31,68a5.59,5.59,0,0,0,2.07,2.41,5.45,5.45,0,0,0,3.05.9,5.31,5.31,0,0,0,3.93-1.6,5.44,5.44,0,0,0,1.52-3.84,6.14,6.14,0,0,0-.55-2.33ZM147.09,46H130.36l8.37-20.15Z"/><path class="cls-1" d="M205.38,27.7a21,21,0,0,0-10.47-2.81,20,20,0,0,0-12.43,4.23,5.24,5.24,0,0,0-1.41-2.26,5.49,5.49,0,0,0-3.88-1.56,5.4,5.4,0,0,0-5.45,5.45V84.57a5.49,5.49,0,0,0,1.56,3.88,5.27,5.27,0,0,0,3.89,1.65,5.42,5.42,0,0,0,5.53-5.53V67.67a20,20,0,0,0,12.19,4,21,21,0,0,0,10.47-2.8,21.38,21.38,0,0,0,8-8.18,24.81,24.81,0,0,0,3-12.43,24.85,24.85,0,0,0-3-12.44A21.29,21.29,0,0,0,205.38,27.7ZM182.72,40.44a18.57,18.57,0,0,1,4.87-3.58,13.77,13.77,0,0,1,6.26-1.48,11.06,11.06,0,0,1,8.44,3.29c2.11,2.21,3.18,5.45,3.18,9.64s-1.07,7.43-3.18,9.63h0a11,11,0,0,1-8.44,3.29,13.64,13.64,0,0,1-6.26-1.48,18.31,18.31,0,0,1-4.87-3.57Z"/><path class="cls-1" d="M255.28,27.7a21,21,0,0,0-10.47-2.81,20,20,0,0,0-12.43,4.23A5.24,5.24,0,0,0,231,26.86a5.49,5.49,0,0,0-3.88-1.56,5.4,5.4,0,0,0-5.45,5.45V84.57a5.49,5.49,0,0,0,1.56,3.88,5.26,5.26,0,0,0,3.89,1.65,5.42,5.42,0,0,0,5.53-5.53V67.67a19.94,19.94,0,0,0,12.19,4,21,21,0,0,0,10.47-2.8,21.29,21.29,0,0,0,8-8.18,24.7,24.7,0,0,0,3-12.43,24.74,24.74,0,0,0-3-12.44A21.26,21.26,0,0,0,255.28,27.7ZM232.62,40.44a18.69,18.69,0,0,1,4.86-3.58,13.84,13.84,0,0,1,6.27-1.48,11.07,11.07,0,0,1,8.44,3.29c2.11,2.21,3.18,5.45,3.18,9.64s-1.07,7.43-3.18,9.63h0a11,11,0,0,1-8.44,3.29,13.68,13.68,0,0,1-6.27-1.48,18.43,18.43,0,0,1-4.86-3.57Z"/><path class="cls-1" d="M299.34,30.34a5.44,5.44,0,0,0-1.52-3.84A5.21,5.21,0,0,0,294,24.89h-.41a15.89,15.89,0,0,0-11.15,4.86A5.55,5.55,0,0,0,277,25.3,5.26,5.26,0,0,0,273.1,27a5.47,5.47,0,0,0-1.56,3.88v35A5.4,5.4,0,0,0,277,71.31a5.53,5.53,0,0,0,3.88-1.55,5.28,5.28,0,0,0,1.64-3.89V41.58a14.85,14.85,0,0,1,4.6-4.28,12.26,12.26,0,0,1,6.29-1.68h.41a5.54,5.54,0,0,0,3.9-1.45A5.09,5.09,0,0,0,299.34,30.34Z"/><path class="cls-1" d="M338.41,51.09a5.44,5.44,0,0,0,1.52-3.84,24.92,24.92,0,0,0-2.47-11A20,20,0,0,0,330.12,28a20.75,20.75,0,0,0-11.4-3.1,20.53,20.53,0,0,0-11.87,3.34,20,20,0,0,0-7.15,8.67,28.45,28.45,0,0,0-2.27,11.41c0,7.31,2.05,13.1,6.1,17.21h0c4.06,4.11,9.72,6.2,16.82,6.2a27.29,27.29,0,0,0,15.18-3.83c2.49-1.44,3-3.27,3-4.56A4.74,4.74,0,0,0,337,59.74a5.08,5.08,0,0,0-3.48-1.36,5,5,0,0,0-2.26.51,23.83,23.83,0,0,1-4.67,1.75,23.32,23.32,0,0,1-5.57.59c-3.83,0-6.82-.92-8.87-2.73a10.87,10.87,0,0,1-3.32-5.81H334.4A5.41,5.41,0,0,0,338.41,51.09Zm-29.7-8a10.5,10.5,0,0,1,1.52-3.94A9.25,9.25,0,0,1,314,35.82a10.77,10.77,0,0,1,9.43,0,9.57,9.57,0,0,1,3.83,3.36,10.43,10.43,0,0,1,1.55,3.92Z"/><path class="cls-1" d="M377,25.3a5.31,5.31,0,0,0-3,.9,5.41,5.41,0,0,0-2,2.26l0,.09L361.1,56.05l-10.84-27.5a.36.36,0,0,1,0-.09,5.26,5.26,0,0,0-2-2.26,5.36,5.36,0,0,0-3-.9A5.26,5.26,0,0,0,341.37,27a5.47,5.47,0,0,0-1.56,3.88,6.17,6.17,0,0,0,.55,2.4l14.22,34a6.81,6.81,0,0,0,2.4,2.9,6.32,6.32,0,0,0,3.71,1.18h.82a6.27,6.27,0,0,0,3.71-1.18,6.91,6.91,0,0,0,2.42-2.93l14.21-34a6.18,6.18,0,0,0,.54-2.4A5.53,5.53,0,0,0,380.84,27,5.29,5.29,0,0,0,377,25.3Z"/><path class="cls-1" d="M423.67,51.09a5.44,5.44,0,0,0,1.52-3.84,24.92,24.92,0,0,0-2.47-11A20.09,20.09,0,0,0,415.39,28,20.81,20.81,0,0,0,404,24.89a20.53,20.53,0,0,0-11.87,3.34A20,20,0,0,0,385,36.9a28.45,28.45,0,0,0-2.27,11.41c0,7.31,2.05,13.1,6.1,17.21h0c4.06,4.11,9.72,6.2,16.82,6.2a27.29,27.29,0,0,0,15.18-3.83c2.49-1.44,3-3.27,3-4.56a4.74,4.74,0,0,0-1.56-3.59,5.08,5.08,0,0,0-3.48-1.36,5,5,0,0,0-2.26.51,23.83,23.83,0,0,1-4.67,1.75,23.26,23.26,0,0,1-5.57.59c-3.83,0-6.81-.92-8.87-2.73a10.87,10.87,0,0,1-3.32-5.81h25.59A5.41,5.41,0,0,0,423.67,51.09Zm-29.7-8a10.5,10.5,0,0,1,1.52-3.94,9.25,9.25,0,0,1,3.77-3.34,10.79,10.79,0,0,1,9.44,0,9.61,9.61,0,0,1,3.82,3.36,10.43,10.43,0,0,1,1.55,3.92Z"/><path class="cls-1" d="M463,27.3a15.9,15.9,0,0,0-8.76-2.41,18.74,18.74,0,0,0-9.37,2.28,26.26,26.26,0,0,0-4.1,2.88,5.54,5.54,0,0,0-5.47-4.75A5.24,5.24,0,0,0,431.37,27a5.47,5.47,0,0,0-1.56,3.88v35a5.4,5.4,0,0,0,5.45,5.44,5.53,5.53,0,0,0,3.88-1.55,5.28,5.28,0,0,0,1.64-3.89V42a24.52,24.52,0,0,1,5.29-4.86,11.17,11.17,0,0,1,6.34-1.83c5,0,7.21,2.52,7.21,8.19V65.87a5.4,5.4,0,0,0,5.44,5.44A5.53,5.53,0,0,0,469,69.76a5.32,5.32,0,0,0,1.64-3.89V42.67a20.37,20.37,0,0,0-1.93-8.85A15.64,15.64,0,0,0,463,27.3Z"/><path class="cls-1" d="M483.68,8.56h-.49a5.94,5.94,0,0,0-5.93,5.94v.32A5.82,5.82,0,0,0,479,19h0a5.81,5.81,0,0,0,4.19,1.74h.49a5.94,5.94,0,0,0,5.94-5.94V14.5a5.94,5.94,0,0,0-5.94-5.94Z"/><path class="cls-1" d="M483.36,25.3A5.26,5.26,0,0,0,479.47,27a5.47,5.47,0,0,0-1.56,3.88v35a5.4,5.4,0,0,0,5.45,5.44,5.53,5.53,0,0,0,3.88-1.55,5.29,5.29,0,0,0,1.65-3.89v-35a5.42,5.42,0,0,0-5.53-5.53Z"/><path class="cls-1" d="M522.89,26.5A5.21,5.21,0,0,0,519,24.89h-.4a15.87,15.87,0,0,0-11.15,4.86A5.54,5.54,0,0,0,506,26.92a5.45,5.45,0,0,0-3.91-1.62A5.26,5.26,0,0,0,498.17,27a5.47,5.47,0,0,0-1.56,3.88v35a5.4,5.4,0,0,0,5.45,5.44,5.53,5.53,0,0,0,3.88-1.55,5.29,5.29,0,0,0,1.65-3.89V41.58a14.71,14.71,0,0,1,4.59-4.28,12.07,12.07,0,0,1,6.29-1.68h.41a5.54,5.54,0,0,0,3.9-1.45,5.05,5.05,0,0,0,1.63-3.83A5.4,5.4,0,0,0,522.89,26.5Z"/><path class="cls-2" d="M89.61,59.81,59.67,8A15.77,15.77,0,0,0,45.88,0h0A15.78,15.78,0,0,0,32.09,8L2.16,59.81A15.92,15.92,0,0,0,16,83.69H30.24a5,5,0,1,0,0-10H16a5.87,5.87,0,0,1-5.09-8.8L40.8,13A5.87,5.87,0,0,1,51,13L80.9,64.84a5.87,5.87,0,0,1-5.08,8.8H61.37a5,5,0,1,0,0,10H75.82A15.92,15.92,0,0,0,89.61,59.81Z"/><path class="cls-3" d="M51,37.53a5.07,5.07,0,1,0-5,5.14A5.06,5.06,0,0,0,51,37.53Z"/><path class="cls-4" d="M49.34,45.49c-2.23,0-4.47,0-6.7,0-2.8,0-4.41,1.68-4.42,4.51,0,4.71.05,9.43,0,14.14a3.78,3.78,0,0,0,1.46,3,3.56,3.56,0,0,1,1.17,3.09c0,3,0,8.14,0,11.21a2.32,2.32,0,0,0,4.64,0V67.78a.45.45,0,0,1,.89,0V81.39a2.34,2.34,0,0,0,4.68,0c0-3,0-7.85-.06-10.74a4.37,4.37,0,0,1,1.63-4,2.37,2.37,0,0,0,.93-1.52q.11-7.83,0-15.68A4,4,0,0,0,49.34,45.49Z"/></g></g></svg>