<svg xmlns="http://www.w3.org/2000/svg" xmlns:xlink="http://www.w3.org/1999/xlink" viewBox="0 0 196.08 41.69"><defs><style>.cls-1{fill:#009e9e;}.cls-2{fill:url(#Degradado_sin_nombre_22);}.cls-3{fill:url(#Degradado_sin_nombre_33);}.cls-4{fill:url(#Degradado_sin_nombre_33-2);}</style><linearGradient id="Degradado_sin_nombre_22" x1="42.66" y1="12.13" x2="-1.64" y2="40.76" gradientUnits="userSpaceOnUse"><stop offset="0" stop-color="#00ffd0"/><stop offset="0.32" stop-color="#3cff91"/><stop offset="1" stop-color="#c8ff00"/></linearGradient><linearGradient id="Degradado_sin_nombre_33" x1="39.93" y1="7.92" x2="-4.36" y2="36.54" gradientUnits="userSpaceOnUse"><stop offset="0" stop-color="aqua"/><stop offset="0.26" stop-color="#32ffc0"/><stop offset="0.87" stop-color="#afff24"/><stop offset="1" stop-color="#cf0"/></linearGradient><linearGradient id="Degradado_sin_nombre_33-2" x1="45.13" y1="15.96" x2="0.83" y2="44.58" xlink:href="#Degradado_sin_nombre_33"/></defs><g id="Capa_2" data-name="Capa 2"><g id="Capa_1-2" data-name="Capa 1"><path class="cls-1" d="M14.81,4.54,1.23,28.06A9.08,9.08,0,0,0,9.1,41.69H36.26a9.08,9.08,0,0,0,7.86-13.63L30.55,4.54a9.09,9.09,0,0,0-15.74,0Z"/><path class="cls-2" d="M41.4,28.59,28.58,6.4A6.73,6.73,0,0,0,22.68,3h0A6.75,6.75,0,0,0,16.77,6.4L4,28.59a6.82,6.82,0,0,0,5.9,10.23H16a2.15,2.15,0,0,0,0-4.3H9.86a2.52,2.52,0,0,1-2.18-3.77L20.5,8.55a2.51,2.51,0,0,1,4.35,0l12.82,22.2a2.45,2.45,0,0,1,0,2.51,2.48,2.48,0,0,1-2.18,1.26H29.31a2.15,2.15,0,0,0,0,4.3h6.18A6.82,6.82,0,0,0,41.4,28.59Z"/><path class="cls-3" d="M24.85,19.05a2.17,2.17,0,1,0-2.16,2.21A2.17,2.17,0,0,0,24.85,19.05Z"/><path class="cls-4" d="M24.16,22.46H21.29a1.75,1.75,0,0,0-1.89,1.93c0,2,0,4,0,6.06A1.64,1.64,0,0,0,20,31.72a1.54,1.54,0,0,1,.5,1.33c0,1.28,0,3.48,0,4.8a1,1,0,0,0,2,0V32a.18.18,0,0,1,.19-.19.18.18,0,0,1,.18.19v5.82a1,1,0,0,0,1,1,1,1,0,0,0,1-1c0-1.28,0-3.36,0-4.6a1.86,1.86,0,0,1,.7-1.7,1,1,0,0,0,.4-.66q0-3.35,0-6.71A1.72,1.72,0,0,0,24.16,22.46Z"/><path class="cls-1" d="M65.85,11.79A2.84,2.84,0,0,0,65,10.73a2.15,2.15,0,0,0-1.37-.45h-.28a2.16,2.16,0,0,0-1.38.45,2.79,2.79,0,0,0-.81,1.07L54,28.7a2,2,0,0,0-.19.8,1.88,1.88,0,0,0,.52,1.32,1.93,1.93,0,0,0,2.4.24,2,2,0,0,0,.72-.85l1.67-4h8.73l1.68,4a1.92,1.92,0,0,0,.71.83,1.93,1.93,0,0,0,2.4-.24,1.88,1.88,0,0,0,.52-1.32,2,2,0,0,0-.19-.8Zm.55,10.87H60.65l2.88-6.93Z"/><path class="cls-1" d="M86.43,16.38a7.16,7.16,0,0,0-3.59-1,6.86,6.86,0,0,0-4.28,1.45,1.82,1.82,0,0,0-.48-.78,1.88,1.88,0,0,0-1.33-.53,1.8,1.8,0,0,0-1.33.54,1.83,1.83,0,0,0-.55,1.33v18.5a1.89,1.89,0,0,0,.54,1.33,1.81,1.81,0,0,0,1.34.57,1.88,1.88,0,0,0,1.9-1.9V30.12a6.87,6.87,0,0,0,4.19,1.39,7.22,7.22,0,0,0,3.6-1,7.36,7.36,0,0,0,2.75-2.81,8.49,8.49,0,0,0,1-4.28,8.47,8.47,0,0,0-1-4.27A7.31,7.31,0,0,0,86.43,16.38Zm-7.78,4.38a6.28,6.28,0,0,1,1.67-1.23A4.69,4.69,0,0,1,82.47,19a3.8,3.8,0,0,1,2.9,1.13,4.61,4.61,0,0,1,1.1,3.31,4.59,4.59,0,0,1-1.1,3.31h0a3.77,3.77,0,0,1-2.9,1.14,4.82,4.82,0,0,1-2.15-.51,6.5,6.5,0,0,1-1.67-1.23Z"/><path class="cls-1" d="M103.58,16.38a7.16,7.16,0,0,0-3.59-1,6.86,6.86,0,0,0-4.28,1.45,1.82,1.82,0,0,0-.48-.78,1.89,1.89,0,0,0-1.34-.53,1.8,1.8,0,0,0-1.32.54A1.83,1.83,0,0,0,92,17.43v18.5a1.89,1.89,0,0,0,.54,1.33,1.81,1.81,0,0,0,1.33.57,1.88,1.88,0,0,0,1.91-1.9V30.12A6.87,6.87,0,0,0,100,31.51a7.16,7.16,0,0,0,3.59-1,7.38,7.38,0,0,0,2.76-2.81,8.59,8.59,0,0,0,1-4.28,8.58,8.58,0,0,0-1-4.27A7.38,7.38,0,0,0,103.58,16.38ZM95.8,20.76a6.28,6.28,0,0,1,1.67-1.23A4.69,4.69,0,0,1,99.62,19a3.8,3.8,0,0,1,2.9,1.13,4.6,4.6,0,0,1,1.09,3.31,4.59,4.59,0,0,1-1.09,3.31h0a3.77,3.77,0,0,1-2.9,1.14,4.82,4.82,0,0,1-2.15-.51,6.5,6.5,0,0,1-1.67-1.23Z"/><path class="cls-1" d="M118.73,17.29a1.86,1.86,0,0,0-.52-1.32,1.81,1.81,0,0,0-1.33-.55h-.14a5.46,5.46,0,0,0-3.83,1.67,1.92,1.92,0,0,0-.52-1,1.89,1.89,0,0,0-1.35-.55,1.8,1.8,0,0,0-1.33.56,1.92,1.92,0,0,0-.54,1.34v12A1.86,1.86,0,0,0,111,31.37a1.92,1.92,0,0,0,1.34-.54,1.78,1.78,0,0,0,.56-1.33V21.15a5.25,5.25,0,0,1,1.58-1.47,4.25,4.25,0,0,1,2.17-.58h.14a1.91,1.91,0,0,0,1.34-.49A1.78,1.78,0,0,0,118.73,17.29Z"/><path class="cls-1" d="M132.16,24.42a1.88,1.88,0,0,0,.52-1.32,8.63,8.63,0,0,0-.85-3.79,6.89,6.89,0,0,0-2.52-2.83,7.15,7.15,0,0,0-3.92-1.06,7.07,7.07,0,0,0-4.08,1.14,6.93,6.93,0,0,0-2.46,3,9.8,9.8,0,0,0-.78,3.92,8.1,8.1,0,0,0,2.1,5.92h0A7.79,7.79,0,0,0,126,31.51a10.87,10.87,0,0,0,2.92-.33,10.72,10.72,0,0,0,2.29-1,1.77,1.77,0,0,0,1-1.56,1.64,1.64,0,0,0-.54-1.24,1.75,1.75,0,0,0-1.19-.47,1.69,1.69,0,0,0-.78.18,8.17,8.17,0,0,1-1.6.6,7.72,7.72,0,0,1-1.92.21,4.46,4.46,0,0,1-3-.95A3.77,3.77,0,0,1,122,25h8.8A1.88,1.88,0,0,0,132.16,24.42ZM122,21.67a3.53,3.53,0,0,1,.52-1.35,3.17,3.17,0,0,1,1.3-1.15,3.69,3.69,0,0,1,3.24,0,3.43,3.43,0,0,1,1.84,2.5Z"/><path class="cls-1" d="M145.4,15.56a1.8,1.8,0,0,0-1,.31,1.89,1.89,0,0,0-.69.77v0L140,26.12l-3.72-9.45,0,0a1.87,1.87,0,0,0-1.7-1.08,1.82,1.82,0,0,0-1.34.56,1.91,1.91,0,0,0-.53,1.34,2.22,2.22,0,0,0,.18.82L137.71,30a2.41,2.41,0,0,0,.83,1,2.16,2.16,0,0,0,1.27.41h.28a2.17,2.17,0,0,0,1.28-.41,2.37,2.37,0,0,0,.83-1l4.88-11.68a2.06,2.06,0,0,0,.19-.82,1.91,1.91,0,0,0-.53-1.34A1.82,1.82,0,0,0,145.4,15.56Z"/><path class="cls-1" d="M161.46,24.42A1.88,1.88,0,0,0,162,23.1a8.63,8.63,0,0,0-.85-3.79,6.89,6.89,0,0,0-2.52-2.83,7.83,7.83,0,0,0-8,.08,6.93,6.93,0,0,0-2.46,3,10,10,0,0,0-.78,3.92,8.1,8.1,0,0,0,2.1,5.92h0a7.79,7.79,0,0,0,5.78,2.13,9.29,9.29,0,0,0,5.22-1.32,1.78,1.78,0,0,0,1-1.56,1.63,1.63,0,0,0-.53-1.24,1.79,1.79,0,0,0-1.2-.47,1.72,1.72,0,0,0-.78.18,8.17,8.17,0,0,1-1.6.6,7.69,7.69,0,0,1-1.91.21,4.44,4.44,0,0,1-3-.95,3.64,3.64,0,0,1-1.14-2h8.79A1.88,1.88,0,0,0,161.46,24.42Zm-10.21-2.75a3.7,3.7,0,0,1,.52-1.35,3.17,3.17,0,0,1,1.3-1.15,3.69,3.69,0,0,1,3.24,0,3.38,3.38,0,0,1,1.32,1.16,3.59,3.59,0,0,1,.53,1.34Z"/><path class="cls-1" d="M175,16.24a5.45,5.45,0,0,0-3-.82,6.42,6.42,0,0,0-3.22.78,8.18,8.18,0,0,0-1.41,1,1.83,1.83,0,0,0-.54-1.08,1.87,1.87,0,0,0-1.34-.55,1.82,1.82,0,0,0-1.34.56,1.91,1.91,0,0,0-.53,1.34v12a1.88,1.88,0,0,0,3.2,1.33,1.79,1.79,0,0,0,.57-1.33V21.29a8.29,8.29,0,0,1,1.82-1.67,3.84,3.84,0,0,1,2.17-.63c1.72,0,2.48.87,2.48,2.82V29.5a1.86,1.86,0,0,0,1.87,1.87,1.9,1.9,0,0,0,1.34-.54,1.79,1.79,0,0,0,.57-1.33v-8a7.06,7.06,0,0,0-.67-3.05A5.4,5.4,0,0,0,175,16.24Z"/><path class="cls-1" d="M182.08,9.8h-.16a2,2,0,0,0-1.45.6,2,2,0,0,0-.59,1.44V12a2,2,0,0,0,.59,1.44h0a2,2,0,0,0,1.45.6h.16a2,2,0,0,0,1.45-.6,2,2,0,0,0,.59-1.44v-.12a2,2,0,0,0-.59-1.44A2,2,0,0,0,182.08,9.8Z"/><path class="cls-1" d="M182,15.56a1.78,1.78,0,0,0-1.33.56,1.87,1.87,0,0,0-.54,1.34v12A1.84,1.84,0,0,0,182,31.37a1.92,1.92,0,0,0,1.34-.54,1.78,1.78,0,0,0,.56-1.33v-12a1.89,1.89,0,0,0-.54-1.36A1.87,1.87,0,0,0,182,15.56Z"/><path class="cls-1" d="M195.56,16a1.8,1.8,0,0,0-1.32-.55h-.14a5.48,5.48,0,0,0-3.84,1.67,1.84,1.84,0,0,0-.52-1,1.87,1.87,0,0,0-1.34-.55,1.82,1.82,0,0,0-1.34.56,1.91,1.91,0,0,0-.53,1.34v12a1.88,1.88,0,0,0,3.2,1.33,1.79,1.79,0,0,0,.57-1.33V21.15a5,5,0,0,1,1.58-1.47A4.14,4.14,0,0,1,194,19.1h.14a1.91,1.91,0,0,0,1.34-.49,1.74,1.74,0,0,0,.56-1.32A1.86,1.86,0,0,0,195.56,16Z"/></g></g></svg>